<svg width="25" height="26" viewBox="0 0 25 26" fill="none" xmlns="http://www.w3.org/2000/svg">
<path d="M20.2371 14.3914C19.5912 15.0243 19.2812 15.9672 19.5396 16.9489C19.8754 18.1501 21.0508 18.9122 22.2908 18.9122H23.4146C24.125 18.9122 24.7062 19.4934 24.7062 20.2039V20.4493C24.7062 23.123 22.5233 25.3059 19.8496 25.3059H5.02122C2.34747 25.3059 0.164551 23.123 0.164551 20.4493V11.7564C0.164551 10.1676 0.926634 8.7597 2.10205 7.88136C2.9158 7.26136 3.9233 6.8997 5.02122 6.8997H19.8496C22.5233 6.8997 24.7062 9.08261 24.7062 11.7564V12.3247C24.7062 13.0351 24.125 13.6164 23.4146 13.6164H22.097C21.3737 13.6164 20.715 13.9005 20.2371 14.3914ZM17.925 4.22594C18.2737 4.5747 17.9766 5.1172 17.4858 5.1172L7.5658 5.10428C6.99747 5.10428 6.70038 4.40678 7.11372 4.00636L9.20622 1.90094C10.0587 1.05694 11.2099 0.583496 12.4096 0.583496C13.6092 0.583496 14.7604 1.05694 15.6129 1.90094L17.8733 4.18719C17.8862 4.20011 17.9121 4.21303 17.925 4.22594Z" fill="white"/>
</svg>
