<svg width="24" height="28" viewBox="0 0 24 28" fill="none" xmlns="http://www.w3.org/2000/svg">
<path fill-rule="evenodd" clip-rule="evenodd" d="M8.92504 1.58327C7.28104 2.45218 5.93602 3.18744 5.93631 3.21735C5.93704 3.29453 9.88196 5.32158 10.022 5.31664C10.0857 5.31447 10.5477 5.09868 11.0487 4.83715L11.9597 4.36173L12.9547 4.88062L13.9495 5.3996L15.5789 4.65678C18.0339 3.53746 18.2889 3.4148 18.2489 3.37359C18.1959 3.31892 17.3153 2.83894 14.9263 1.5628C13.7716 0.946021 12.651 0.341291 12.4359 0.218925C12.2207 0.0965578 12.0154 -0.00187822 11.9795 2.72028e-05C11.9436 0.00193262 10.5691 0.714399 8.92504 1.58327ZM1.71447 5.3717L0.00308753 6.26861V10.2049C0.00308753 12.37 0.0255597 14.1413 0.0531247 14.1413C0.0805942 14.1413 0.9226 13.7709 1.9242 13.3183L3.74531 12.4954V8.34619L4.63522 8.83811C5.32097 9.21684 6.00713 9.59479 6.69371 9.97197L7.86226 10.6139L8.38224 10.3753C8.70835 10.2255 9.03381 10.0742 9.3586 9.9214C9.60958 9.80281 10.2257 9.52126 10.7277 9.29561C11.2297 9.06987 11.6944 8.84286 11.7603 8.79113C11.8478 8.7224 10.7805 8.12397 7.81251 6.57761C5.57532 5.41197 3.67312 4.46198 3.58539 4.46653C3.49767 4.47108 2.65576 4.87836 1.71447 5.3717ZM18.5574 5.62357C17.3918 6.15745 16.4374 6.61559 16.4363 6.64171C16.4353 6.66781 17.0705 7.05106 17.8481 7.49324C18.6256 7.93553 19.2617 8.32103 19.2617 8.35007C19.2617 8.37904 18.5737 8.71727 17.7329 9.10184C16.892 9.48631 14.7665 10.4602 13.0095 11.2661L7.1224 13.966C5.6415 14.6453 4.30663 15.2575 4.15604 15.3267C1.13122 16.716 0.299809 17.1015 0.185634 17.1677C0.0708223 17.2343 0.044817 17.6214 0.024382 19.564L0 21.881L1.5304 22.6722L3.06076 23.4633L5.18286 22.4916C6.35004 21.9572 7.30495 21.492 7.30495 21.4577C7.30495 21.4236 7.08926 21.281 6.82577 21.1407C6.56216 21.0005 6.01799 20.6901 5.61638 20.4508C5.21481 20.2114 4.81439 19.9919 4.72647 19.9627C4.63859 19.9337 4.56796 19.8829 4.56939 19.8498C4.57086 19.8167 5.50533 19.3664 6.64587 18.8489C8.86116 17.844 10.5565 17.0694 14.1961 15.3995C15.8236 14.6529 17.4513 13.9068 19.0792 13.1611C20.5099 12.5059 22.1733 11.7407 22.7758 11.4606L23.871 10.9514L23.8954 8.60801L23.9199 6.26473L22.3677 5.45638C21.5139 5.01184 20.7842 4.64919 20.7459 4.65052C20.7077 4.65174 19.7228 5.08957 18.5574 5.62357ZM23.4552 14.0776C23.2264 14.1909 22.7746 14.4032 22.4512 14.5492C22.1277 14.6952 21.5139 14.9762 21.0872 15.1737L20.3114 15.5328L20.2937 17.59C20.2839 18.7215 20.2428 19.6422 20.2024 19.6363C20.1106 19.6224 18.6565 18.8658 17.1949 18.0711C16.1399 17.4977 16.0736 17.4749 15.8257 17.5994C15.6824 17.6715 14.8259 18.0613 13.9223 18.4658C13.0186 18.8702 12.2499 19.2275 12.2137 19.2599C12.1776 19.2922 13.9963 20.2922 16.2552 21.4824L20.3622 23.6463L22.1167 22.7254C23.0815 22.219 23.902 21.7571 23.9398 21.699C24.0248 21.5684 24.0175 13.8535 23.9324 13.864C23.8987 13.8681 23.6839 13.9642 23.4552 14.0776ZM13.7397 23.1329C13.4354 23.2656 13.1311 23.3986 12.827 23.5317C11.9085 23.9349 12.0885 23.9482 10.9958 23.3963C10.268 23.0287 9.95424 22.9153 9.81807 22.9704C9.71593 23.0116 8.83687 23.4129 7.86446 23.862C6.89211 24.3112 6.0628 24.6786 6.02155 24.6786C5.61358 24.6786 6.29182 25.0898 8.909 26.4293L11.9783 28L13.2697 27.3531C13.98 26.9973 15.4127 26.2849 16.4534 25.7699C17.4941 25.2548 18.3328 24.82 18.3171 24.8036C18.3012 24.7872 17.4292 24.3329 16.3791 23.794L14.4699 22.8142L13.7397 23.1329Z" fill="white"/>
</svg>
