<svg width="23" height="22" viewBox="0 0 23 22" fill="none" xmlns="http://www.w3.org/2000/svg">
<path d="M18.4231 6H4.57692C3.42987 6 2.5 6.89543 2.5 8V16C2.5 17.1046 3.42987 18 4.57692 18H18.4231C19.5701 18 20.5 17.1046 20.5 16V8C20.5 6.89543 19.5701 6 18.4231 6Z" stroke="#002F89" stroke-width="1.375" stroke-linejoin="round"/>
<path d="M18.5 6.33304V5.0829C18.4999 4.77628 18.4283 4.47347 18.2903 4.19606C18.1523 3.91865 17.9513 3.67349 17.7016 3.47806C17.452 3.28263 17.1598 3.14176 16.846 3.06549C16.5322 2.98922 16.2044 2.97944 15.8862 3.03683L4.28952 4.90996C3.78592 5.00078 3.3316 5.25507 3.00491 5.62897C2.67822 6.00287 2.49965 6.47294 2.5 6.95811V9" stroke="#002F89" stroke-width="1.375" stroke-linejoin="round"/>
<path d="M16 14C15.7033 14 15.4133 13.912 15.1666 13.7472C14.92 13.5824 14.7277 13.3481 14.6142 13.074C14.5006 12.7999 14.4709 12.4983 14.5288 12.2074C14.5867 11.9164 14.7296 11.6491 14.9393 11.4393C15.1491 11.2296 15.4164 11.0867 15.7074 11.0288C15.9983 10.9709 16.2999 11.0006 16.574 11.1142C16.8481 11.2277 17.0824 11.42 17.2472 11.6666C17.412 11.9133 17.5 12.2033 17.5 12.5C17.5 12.8978 17.342 13.2794 17.0607 13.5607C16.7794 13.842 16.3978 14 16 14Z" fill="#002F89"/>
</svg>
