<svg width="34" height="28" viewBox="0 0 34 28" fill="none" xmlns="http://www.w3.org/2000/svg">
<path d="M34 3.33846C32.725 3.87692 31.45 4.30769 29.9625 4.41539C31.45 3.55385 32.5125 2.15385 33.0437 0.538462C31.6625 1.4 30.175 1.93846 28.5813 2.26154C27.3063 0.861539 25.5 0 23.5875 0C19.7625 0 16.575 3.12308 16.575 7.10769C16.575 7.64615 16.6812 8.18462 16.7875 8.72308C10.9437 8.4 5.84375 5.6 2.44375 1.29231C1.80625 2.36923 1.4875 3.55385 1.4875 4.84615C1.4875 7.32308 2.7625 9.47692 4.56875 10.7692C3.4 10.7692 2.3375 10.4462 1.38125 9.90769V10.0154C1.38125 13.4615 3.825 16.2615 7.0125 16.9077C6.375 17.0154 5.84375 17.1231 5.20625 17.1231C4.78125 17.1231 4.35625 17.1231 3.93125 17.0154C4.78125 19.8154 7.4375 21.8615 10.4125 21.9692C8.075 23.9077 4.99375 24.9846 1.7 24.9846C1.16875 24.9846 0.53125 24.9846 0 24.8769C3.08125 26.9231 6.8 28 10.7313 28C23.5875 28 30.6 17.2308 30.6 7.86154C30.6 7.53846 30.6 7.21538 30.6 7C31.875 5.92308 33.0438 4.73846 34 3.33846Z" fill="white"/>
</svg>
